<?xml version="1.0" encoding="UTF-8"?>
<!DOCTYPE svg PUBLIC "-//W3C//DTD SVG 1.1//EN" "http://www.w3.org/Graphics/SVG/1.1/DTD/svg11.dtd">
<!-- Creator: CorelDRAW X6 -->
<svg xmlns="http://www.w3.org/2000/svg" xml:space="preserve" width="69.1181mm" height="38.423mm" version="1.1" style="shape-rendering:geometricPrecision; text-rendering:geometricPrecision; image-rendering:optimizeQuality; fill-rule:evenodd; clip-rule:evenodd"
viewBox="0 0 6945 3861"
 xmlns:xlink="http://www.w3.org/1999/xlink">
 <defs>
  <style type="text/css">
   <![CDATA[
    .str3 {stroke:#0098DA;stroke-width:7.65617}
    .str2 {stroke:#41AC99;stroke-width:7.65617}
    .str1 {stroke:#8DA09A;stroke-width:7.65617}
    .str5 {stroke:#95C949;stroke-width:7.65617}
    .str0 {stroke:#CBBC4C;stroke-width:7.65617}
    .str4 {stroke:#FAA954;stroke-width:7.65617}
    .fil6 {fill:#0098DA}
    .fil5 {fill:#41AC99}
    .fil7 {fill:#60C3B2}
    .fil4 {fill:#8DA09A}
    .fil9 {fill:#95C949}
    .fil3 {fill:#CBBC4C}
    .fil8 {fill:#FAA954}
    .fil0 {fill:white}
    .fil2 {fill:black;fill-rule:nonzero}
    .fil1 {fill:#0098DA;fill-rule:nonzero}
   ]]>
  </style>
 </defs>
 <g id="Capa_x0020_1">
  <metadata id="CorelCorpID_0Corel-Layer"/>
  <polygon class="fil0" points="0,0 6945,0 6945,3861 0,3861 "/>
  <path class="fil1" d="M1393 847c-25,-25 -60,-41 -98,-41 -39,0 -73,16 -98,41 -25,25 -41,61 -41,99 0,39 16,74 41,100 25,25 60,41 98,41 39,0 73,-16 98,-41 25,-25 41,-61 41,-100 0,-39 -16,-74 -41,-99z"/>
  <path class="fil2" d="M1026 1276c10,-46 55,-75 101,-65 46,10 75,55 65,101 -18,82 -19,163 -5,240 14,80 45,156 88,224 43,68 100,127 166,173 64,45 138,78 219,96 82,18 163,19 240,5 80,-14 156,-45 224,-88 68,-43 127,-100 173,-166 45,-64 78,-138 96,-219 18,-82 19,-163 5,-240 -14,-80 -45,-156 -88,-224 -43,-68 -100,-127 -166,-173 -64,-45 -138,-78 -219,-96 -45,-10 -90,-15 -133,-15 -45,0 -89,5 -132,15 -46,10 -91,-19 -101,-65 -10,-46 19,-91 65,-101 55,-12 111,-19 169,-19 56,0 113,6 169,18 103,23 198,65 280,123 85,59 157,135 212,221 55,86 94,183 112,285 18,99 17,202 -6,305 -23,103 -65,198 -123,280 -59,85 -135,157 -221,212 -86,55 -183,94 -285,112 -99,18 -202,17 -305,-6 -103,-23 -198,-65 -280,-123 -85,-59 -157,-135 -212,-221 -55,-86 -94,-183 -112,-285 -18,-99 -17,-202 6,-305z"/>
  <path class="fil2" d="M919 2474c-43,43 -113,43 -157,0 -43,-43 -43,-113 0,-157l254 -254c43,-43 113,-43 157,0 43,43 43,113 0,157l-254 254z"/>
  <path class="fil2" d="M931 2384c-22,22 -57,22 -78,0 -22,-22 -22,-57 0,-78l427 -427c22,-22 57,-22 78,0 22,22 22,57 0,78l-427 427z"/>
  <path class="fil3 str0" d="M2084 1367c-53,146 -160,272 -311,344l-1 0 -1 0 -1 0 -1 0 -1 0 -1 0 -1 0 -1 0 -1 0 -1 0 -1 0 -1 0 0 0 -1 0 0 0 -1 0 -1 0 0 0 -1 0 0 0 -1 0 -1 0 -1 0 -1 0 -1 0 -1 0 -1 0 0 0 -1 0 -1 0 0 0 -1 0 -1 0 -1 0 0 0 -1 0 0 0 -1 0 -1 0 -1 0 -1 0 -1 0 -1 0 -1 0 0 0 -1 0 0 0 -1 0 0 0 -1 0 -1 0 0 0 -1 0 0 0 -1 0 -1 0 0 0 -1 0 -1 0 0 0 -1 0 0 0 -1 0 0 0 -1 0 0 0 -1 0 0 0 -1 0 0 0 -1 0 0 0 -1 0 -1 0 0 0 -1 0 0 0 -1 0 -1 0 0 0 -1 0 0 0 -1 0 0 0 -1 0 0 0 -1 0 0 0 -1 0 0 0 -1 0 0 0 -1 0 0 0 -1 0c46,54 101,101 164,137 3,-1 5,-1 8,-2l3 -1c3,-1 5,-1 8,-2l3 -1c3,-1 5,-1 8,-2l2 -1c3,-1 6,-2 8,-2l3 -1c3,-1 5,-2 8,-3l2 -1c3,-1 6,-2 10,-3l0 0 0 0 0 0c3,-1 6,-2 9,-3l1 0 1 0c3,-1 6,-2 9,-4l0 0 0 0 0 0c3,-1 7,-3 10,-4l0 0 1 0c3,-1 6,-3 9,-4 3,-1 6,-3 9,-4l2 -1c3,-1 6,-3 8,-4l2 -1c3,-2 6,-3 8,-5l0 0 1 0c3,-2 5,-3 8,-5l2 -1c3,-2 5,-3 8,-5l1 -1c3,-2 5,-4 8,-5l1 -1c2,-2 5,-3 7,-5l2 -1c3,-2 5,-4 7,-6l1 -1c2,-2 5,-4 7,-6l2 -1c2,-2 4,-3 6,-5l2 -2c2,-2 4,-3 6,-5l2 -2c2,-2 4,-4 6,-6l2 -2c2,-2 4,-4 6,-6l0 0 0 0 1 -1 5 -5 2 -2c2,-2 4,-4 6,-6l2 -2c2,-2 4,-4 5,-6l2 -3 4 -4 3 -3c2,-2 3,-4 5,-6l2 -3 5 -6 2 -3 3 -4 4 -5 2 -3 3 -4 0 0 3 -5 0 0 2 -4 2 -4 3 -5 2 -4 2 -4 3 -6 2 -4 2 -4 3 -6 1 -3 2 -4 3 -6 0 0 2 -4 2 -4 3 -7 1 -2c1,-3 2,-5 3,-8l1 -2c2,-5 4,-11 6,-16l1 -3c1,-3 2,-6 3,-9l0 -1 2 -5 2 -6 2 -6 0 0c1,-3 2,-7 3,-10l1 -3 1 -5 1 -6c-34,-61 -80,-117 -136,-165z"/>
  <path class="fil4 str1" d="M1580 1230c153,-27 316,3 453,98l1 1 1 1 1 1 1 1 1 1 1 1 0 0 1 1 1 1 1 1 1 1 1 1 0 0 1 1 1 1 0 0 1 1 0 0 1 1 1 1 1 1 1 1 0 0 1 1 0 0 1 1 0 0 1 1 0 0 1 1 1 1 0 0 1 1 1 1 0 0 1 1 0 0 1 1 0 0 1 1 0 0 1 1 0 0 1 1 0 0 1 1 0 0 1 1 0 0 1 1 0 0 1 1 0 0 1 1 0 0 1 1 0 0 1 1 0 0 1 1 0 0 1 1 0 0 1 1 0 0 1 1 0 0 1 1 0 0 1 1 0 0 1 1 0 0 1 1 0 0 1 1 0 0 1 1 0 0 1 1 0 0 1 1 0 0 2 1 0 0 1 1 0 0 1 1 0 0 1 1 0 0 1 1 0 0 1 1 0 0 1 1 0 0 1 1 0 0 1 1 0 0 1 1 0 0 1 1 0 0 1 1 0 0 1 1 0 0 1 1c24,-67 37,-138 36,-210l0 0 -4 -5 -2 -2 -4 -4 -2 -3 -4 -4 -2 -2 -4 -4 -2 -2 -5 -4 -2 -2 -5 -4 -2 -2 -5 -4c-2,-2 -4,-4 -7,-6l-4 -4 -3 -2 -4 -3 -4 -3 -4 -3 -4 -3 -4 -3 -3 -2 -5 -3 -3 -2 -4 -3 -4 -2 -4 -2 -4 -2 -4 -3 -4 -2c-4,-2 -8,-5 -13,-7 -3,-1 -5,-3 -8,-4l-8 -4 -8 -4c-15,-7 -31,-13 -47,-18 -6,-2 -12,-4 -18,-5 -3,-1 -6,-2 -9,-2l-9 -2 -9 -2 -9 -2c-3,-1 -7,-1 -10,-2 -13,-2 -26,-4 -39,-4 -3,0 -6,0 -9,-1 -7,0 -13,0 -20,0 -22,0 -47,2 -69,6 -3,1 -7,1 -10,2 -19,4 -39,9 -58,15 -36,60 -61,128 -75,200l0 0z"/>
  <path class="fil5 str2" d="M1713 1735c-69,25 -140,36 -211,35 -3,-2 -5,-5 -8,-7l0 0c-5,-5 -10,-10 -15,-15l0 0c-5,-5 -10,-10 -15,-16l0 0c-2,-3 -5,-5 -7,-8l0 0c-2,-3 -5,-6 -7,-8l0 0c-2,-3 -4,-6 -7,-9l0 0c-2,-3 -4,-6 -6,-9l0 0c-2,-3 -4,-6 -6,-9l0 0c-2,-3 -4,-6 -6,-9l0 0c-2,-3 -4,-6 -6,-9l0 0c-2,-3 -4,-6 -5,-9l0 0 0 0 0 0c-2,-3 -4,-6 -5,-9l0 0 0 0 0 0c-2,-3 -3,-6 -5,-9l0 0 0 0 0 0c-2,-3 -3,-6 -5,-10 -2,-3 -3,-6 -4,-10l0 0 0 0 0 -1c-1,-3 -3,-6 -4,-9l0 0 0 0c-1,-3 -3,-6 -4,-9l0 -1 0 0c-1,-3 -2,-6 -4,-10l0 -1c-1,-3 -2,-6 -3,-9l0 -1 0 -1c-1,-3 -2,-6 -3,-9l0 -2c-1,-3 -2,-6 -3,-9l0 -1c-1,-3 -2,-6 -2,-9l0 -1c-1,-3 -1,-6 -2,-9l-1 -3 -2 -8 0 -2c-1,-3 -1,-5 -1,-8l0 -3c0,-2 -1,-5 -1,-7l-1 -4 -1 -7 0 -4 -1 -7 0 -3 -1 -7 0 -4 0 0 0 -5 0 0 0 -5 0 0 0 -5 0 -1 0 -4 0 -7 0 -4 0 -5 0 0 0 -5 0 -5 0 -1 0 -5 0 -5 0 -1c0,-3 0,-6 1,-9l0 -1c0,-3 1,-6 1,-8l0 -2c1,-10 3,-19 4,-29l0 -2c1,-6 3,-13 4,-19l0 -1c1,-3 2,-6 2,-9l0 -1c1,-3 2,-6 3,-9l0 -1c1,-3 2,-6 3,-9l0 -1c1,-3 2,-6 3,-9l0 0c62,-36 130,-61 200,-74l0 1 0 0 0 1 0 0 0 1 0 0 0 1 0 0 0 1 0 0 0 1 0 0 0 1 0 0 0 1 0 0 0 1 0 0 0 1 0 0 0 1 0 0 0 1 0 0 0 1 0 0 0 1 0 0 0 1 0 0 0 1 0 0 0 1 0 0 0 1 0 0 0 1 0 0 0 1 0 0 0 1 0 0 0 1 0 0 0 1 0 0 0 1 0 0 0 1 0 0 0 1 0 0 0 1 0 0 0 1 0 0 0 1 0 0 0 1 0 0 0 1 0 0 0 1 0 0 0 1 0 0 0 1 0 0 0 1 0 0 0 1 0 0 0 1 0 0 0 1 0 0 0 1 0 0 0 1 0 0 0 1 0 0 0 1 0 0 0 1 0 1 0 0 0 1 0 0 0 1 0 1 0 0 0 1 0 1 0 0 0 1 0 0 0 1 0 1 0 0 0 1 0 0 0 1 0 1 0 1 0 1 0 1 0 1 0 1 0 1 0 1 0 0 0 1 0 1c-13,167 42,323 142,442z"/>
  <path class="fil6 str3" d="M1655 1030c-17,6 -34,12 -50,20 -110,53 -189,146 -225,253 62,-36 130,-61 200,-74 13,-72 39,-139 75,-200z"/>
  <path class="fil7" d="M1580 1230c-4,21 -7,42 -8,64 -13,167 42,323 142,442 20,-7 40,-15 59,-25 151,-72 259,-198 311,-344 -16,-14 -33,-27 -51,-39 -138,-95 -301,-125 -453,-98z"/>
  <path class="fil8 str4" d="M2220 1532c18,-90 9,-186 -34,-275 -18,-37 -40,-71 -66,-100 1,72 -12,144 -36,210l0 0c56,48 101,104 136,165z"/>
  <path class="fil9 str5" d="M1715 1735c-71,25 -142,36 -212,36 101,89 240,128 374,101 -62,-36 -118,-82 -164,-137l1 0 0 0 1 0 0 0 1 0 -1 1z"/>
  <path class="fil2" d="M6050 2142c-8,0 -16,-2 -24,-6 -8,-4 -15,-9 -22,-17l-338 -469 -46 -35 -333 -464c-9,-12 -13,-25 -12,-40 1,-15 7,-27 16,-37 9,-10 22,-15 39,-15 19,0 34,6 44,19l320 444 43 32 355 492c9,12 14,26 13,41 0,15 -6,28 -15,39 -10,11 -23,16 -41,16z"/>
  <path class="fil2" d="M5308 2142c-18,0 -31,-5 -40,-16 -9,-11 -14,-24 -15,-39 -1,-15 4,-29 14,-41l358 -485 54 -46 323 -437c11,-13 26,-19 44,-19 16,0 28,5 38,16 10,11 15,23 16,37 1,14 -3,27 -11,40l-340 459 -51 43 -348 470c-11,12 -25,18 -42,18z"/>
  <path class="fil1" d="M5067 1087c-18,-18 -42,-29 -69,-29 -27,0 -52,11 -69,29 -18,18 -29,43 -29,70 0,28 11,52 29,70 18,18 42,29 69,29 27,0 52,-11 69,-29 18,-18 29,-43 29,-70 0,-28 -11,-52 -29,-70z"/>
  <path class="fil2" d="M4998 2142c-18,0 -32,-5 -43,-16 -11,-11 -17,-25 -17,-44l0 -639c0,-18 6,-33 17,-44 11,-11 25,-16 43,-16 18,0 32,5 42,16 11,11 16,25 16,44l0 639c0,18 -5,33 -16,44 -11,11 -25,16 -42,16z"/>
  <path class="fil2" d="M3422 2156c-59,0 -114,-9 -166,-26 -51,-18 -96,-42 -134,-74 -38,-32 -66,-69 -85,-112 -8,-16 -9,-30 -1,-44 8,-14 21,-23 40,-28 14,-4 28,-2 42,5 14,7 24,18 30,33 14,26 34,49 60,70 26,21 58,37 94,49 37,12 76,17 119,17 48,0 91,-8 129,-24 38,-16 68,-38 90,-68 22,-30 33,-66 33,-108 0,-54 -20,-101 -61,-141 -41,-40 -105,-65 -194,-76 -110,-13 -196,-47 -259,-101 -62,-55 -94,-122 -94,-202 0,-57 16,-107 47,-149 31,-42 74,-74 129,-97 55,-23 116,-34 186,-34 53,0 100,8 141,24 42,16 78,38 109,64 31,27 57,57 77,90 11,17 15,33 12,48 -3,15 -12,27 -26,35 -15,7 -30,9 -46,3 -16,-5 -28,-15 -37,-30 -14,-22 -31,-43 -52,-62 -21,-19 -46,-34 -76,-45 -30,-11 -65,-17 -105,-18 -71,0 -129,15 -175,44 -45,30 -68,73 -68,132 0,30 8,58 24,84 16,26 43,49 82,67 38,18 91,32 157,42 115,15 201,49 258,104 57,55 86,126 86,215 0,51 -9,96 -28,134 -19,39 -46,71 -80,98 -34,26 -74,46 -119,60 -45,13 -92,20 -142,20z"/>
  <path class="fil2" d="M4708 1541c4,7 7,14 9,21 1,8 1,15 0,23 -2,8 -5,15 -9,21 -4,6 -10,12 -16,16 -7,4 -14,7 -21,9 -8,1 -15,1 -23,0 -8,-2 -15,-5 -21,-9 -6,-4 -12,-10 -16,-16 -5,-8 -11,-15 -17,-23 -6,-7 -12,-14 -19,-21 -7,-7 -13,-13 -20,-19 -7,-6 -15,-11 -22,-17l-2 -1 0 0c-7,-5 -14,-9 -22,-13 -8,-4 -17,-9 -25,-12l0 0c-9,-4 -18,-7 -26,-10 -9,-3 -18,-5 -27,-7 -9,-2 -19,-3 -28,-4 -9,-1 -19,-2 -28,-2l0 0 0 0 0 0c-9,0 -19,0 -28,1 -9,1 -19,2 -28,4 -9,2 -18,4 -27,7 -9,3 -18,6 -26,9 -9,4 -17,7 -25,12 -8,4 -16,9 -24,14 -8,5 -15,11 -23,17 -7,6 -14,12 -21,19 -7,7 -13,13 -19,20 -6,7 -12,15 -17,22 -5,8 -10,16 -15,24 -4,8 -8,17 -12,25l-1 3 0 0c-3,8 -6,16 -8,23 -3,9 -5,18 -7,27 -2,9 -3,19 -4,28 -1,9 -2,19 -2,28 0,9 0,19 1,28 1,9 2,18 4,28 2,9 4,18 7,27 3,9 6,18 9,26 4,9 7,17 12,25 4,8 9,16 14,24 5,8 11,15 17,23 6,7 12,14 19,21 7,7 13,13 20,19 7,6 15,12 22,17l0 0c8,5 16,10 24,15 8,4 17,8 25,12l3 1 0 0c8,3 16,6 23,8 9,3 18,5 27,7 9,2 19,3 28,4 9,1 19,2 28,2l0 0 0 0 0 0c9,0 19,0 28,-1 9,-1 18,-2 28,-4 9,-2 18,-4 27,-7 9,-3 18,-6 26,-9 9,-4 17,-7 25,-12 8,-4 16,-9 24,-14 4,-3 8,-6 13,-9 4,-3 8,-6 12,-10 4,-3 8,-7 12,-10 4,-4 7,-7 11,-11 4,-4 7,-8 11,-11 3,-4 7,-8 10,-12 3,-4 6,-8 9,-12 3,-4 6,-9 8,-13l0 0 1 -1 0 -1 0 0c4,-6 9,-11 15,-15l0 0c6,-4 13,-7 20,-9 7,-2 15,-2 23,-1 7,1 15,4 21,8l1 1 1 0 0 0c6,4 11,9 15,15 4,6 7,13 9,20 2,7 2,15 1,23 -1,7 -4,15 -8,21 -4,6 -8,12 -12,18 -4,6 -8,12 -13,18 -5,6 -9,11 -14,17 -5,5 -10,11 -15,16 -5,5 -10,10 -16,15l0 0c-5,5 -11,10 -16,14 -5,4 -11,9 -17,13l0 0c-6,4 -12,8 -18,13 -11,7 -23,14 -34,20 -12,6 -24,12 -36,17 -12,5 -25,9 -37,13 -13,4 -26,7 -38,9 -13,2 -26,4 -39,5 -13,1 -26,2 -40,2 -13,0 -27,-1 -40,-2 -13,-1 -26,-3 -39,-6 -13,-3 -26,-6 -38,-10 -13,-4 -25,-8 -37,-14 -12,-5 -24,-11 -36,-17 -11,-6 -23,-13 -34,-21l0 0c-11,-7 -21,-15 -32,-24 -10,-8 -20,-17 -29,-27 -9,-9 -18,-19 -26,-29l0 0c-8,-10 -16,-21 -23,-32 -7,-11 -14,-23 -20,-34 -6,-12 -12,-24 -17,-36 -5,-12 -9,-25 -13,-37 -4,-13 -7,-26 -9,-38 -2,-13 -4,-26 -5,-39 -1,-13 -2,-26 -2,-40 0,-13 1,-27 2,-40 1,-13 3,-26 6,-39 3,-13 6,-26 10,-38l0 0c4,-13 8,-25 14,-37 5,-12 11,-24 17,-36 6,-11 13,-23 21,-34 7,-11 15,-22 24,-32 8,-10 17,-20 27,-29 9,-9 19,-18 29,-26 10,-8 21,-16 32,-23 11,-7 23,-14 34,-20 12,-6 24,-12 36,-17 12,-5 25,-9 37,-13 13,-4 26,-7 38,-9 13,-2 26,-4 39,-5 13,-1 26,-2 40,-2 13,0 27,1 40,2 13,1 26,3 39,6 13,3 26,6 38,10l0 0c12,4 25,8 37,14 12,5 24,11 36,17l0 0c11,6 23,13 34,21l0 0c11,7 21,15 32,24 10,8 20,17 29,27 9,9 18,19 26,29 8,10 16,21 23,32z"/>
  <path class="fil2" d="M6098 3115c-7,0 -12,-2 -15,-5 -3,-4 -5,-9 -5,-15l0 -208c0,-7 2,-12 5,-15 3,-3 8,-5 14,-5 6,0 11,2 15,5 3,3 5,9 5,15l0 40 -5 0c5,-20 15,-35 30,-45 15,-11 33,-16 55,-17 5,0 9,1 12,3 3,2 5,7 5,13 0,6 -1,10 -4,13 -3,3 -8,5 -14,6l-8 1c-23,2 -40,9 -52,22 -12,12 -18,29 -18,51l0 121c0,7 -2,12 -5,15 -3,4 -9,5 -15,5zm-4040 0c-8,0 -14,-2 -19,-5 -5,-4 -8,-9 -9,-15 -1,-6 0,-13 3,-21l132 -291c4,-10 10,-17 16,-21 6,-4 13,-6 21,-6 8,0 15,2 21,6 6,4 11,11 16,21l132 291c4,8 5,15 4,21 -1,6 -4,11 -8,15 -5,3 -11,5 -18,5 -9,0 -17,-2 -22,-7 -5,-4 -10,-11 -14,-21l-32 -75 27 17 -210 0 27 -17 -32 75c-4,10 -9,17 -13,21 -5,4 -11,6 -20,6zm-1025 0c-10,0 -17,-3 -22,-8 -5,-5 -8,-13 -8,-23l0 -296c0,-10 3,-18 8,-24 5,-5 12,-8 20,-8 8,0 13,1 17,4 4,3 8,8 14,14l191 248 -13 0 0 -236c0,-10 3,-17 8,-22 5,-5 13,-8 22,-8 10,0 17,3 22,8 5,5 7,13 7,22l0 299c0,9 -2,17 -7,22 -5,5 -11,8 -19,8 -8,0 -14,-1 -18,-4 -4,-3 -9,-8 -15,-14l-190 -248 12 0 0 236c0,10 -2,18 -7,23 -5,5 -12,8 -22,8zm346 0c-8,0 -14,-2 -19,-5 -5,-4 -8,-9 -9,-15 -1,-6 0,-13 3,-21l132 -291c4,-10 10,-17 16,-21 6,-4 13,-6 21,-6 8,0 15,2 21,6 6,4 11,11 16,21l132 291c4,8 5,15 4,21 -1,6 -4,11 -8,15 -5,3 -11,5 -18,5 -9,0 -17,-2 -22,-7 -5,-4 -10,-11 -14,-21l-32 -75 27 17 -210 0 27 -17 -32 75c-4,10 -9,17 -13,21 -5,4 -11,6 -20,6zm143 -286l-70 166 -13 -16 166 0 -12 16 -70 -166 -1 0zm341 287c-15,0 -29,-1 -44,-3 -15,-2 -28,-5 -41,-10 -13,-4 -25,-10 -35,-17 -6,-4 -10,-9 -12,-14 -2,-6 -3,-11 -2,-17 1,-5 3,-10 6,-14 3,-4 8,-7 13,-8 5,-1 11,1 17,4 15,9 30,15 46,19 16,4 33,6 51,6 26,0 45,-4 57,-13 12,-9 18,-20 18,-34 0,-12 -4,-21 -13,-27 -8,-7 -23,-12 -44,-16l-55 -11c-32,-7 -55,-18 -70,-34 -15,-16 -23,-37 -23,-63 0,-16 3,-31 10,-44 7,-13 16,-25 28,-34 12,-10 27,-17 43,-22 17,-5 35,-8 56,-8 20,0 39,2 57,7 18,5 34,12 48,22 5,4 9,8 11,13 2,5 2,11 1,16 -1,5 -3,10 -7,13 -4,4 -8,6 -14,6 -5,1 -12,-1 -19,-5 -12,-7 -25,-12 -37,-15 -13,-3 -26,-4 -41,-4 -15,0 -28,2 -39,6 -11,4 -19,10 -25,18 -6,8 -9,17 -9,28 0,12 4,22 12,29 8,7 22,13 41,17l54 11c33,7 57,18 73,33 16,15 24,35 24,60 0,16 -3,30 -10,43 -6,13 -16,24 -28,33 -12,9 -27,16 -44,21 -17,5 -36,7 -57,7zm337 -287l-70 166 -13 -16 166 0 -12 16 -70 -166 -1 0zm1888 286c-26,0 -48,-5 -66,-15 -18,-10 -33,-24 -43,-43 -10,-19 -15,-41 -15,-67 0,-25 5,-47 15,-66 10,-19 24,-33 41,-44 17,-11 38,-16 61,-16 16,0 31,3 44,8 13,5 24,13 33,24 9,10 16,23 21,37 5,15 7,31 7,49 0,5 -1,9 -4,12 -3,2 -7,4 -13,4l-173 0 0 -26 164 0 -8 6c0,-18 -3,-33 -8,-46 -5,-12 -13,-22 -23,-29 -10,-7 -23,-10 -38,-10 -17,0 -31,4 -43,12 -12,8 -21,19 -27,32 -6,14 -9,30 -9,48l0 3c0,31 7,54 22,70 15,16 36,24 63,24 11,0 22,-1 34,-4 11,-3 22,-8 33,-15 5,-3 9,-4 13,-4 4,0 7,1 9,3 2,2 4,5 5,8 1,3 1,7 -1,10 -1,4 -4,7 -9,9 -11,8 -24,14 -39,18 -15,4 -30,6 -44,6zm-1416 0c-16,0 -31,-1 -46,-4 -15,-3 -29,-6 -42,-11 -13,-5 -24,-11 -35,-19 -4,-3 -7,-6 -8,-10 -1,-4 -2,-8 -1,-11 1,-4 2,-7 5,-10 2,-3 6,-4 9,-4 4,0 8,1 12,3 15,11 31,18 48,23 17,5 36,7 57,7 30,0 52,-6 67,-17 14,-11 22,-26 22,-44 0,-15 -5,-27 -16,-35 -10,-8 -28,-15 -53,-20l-52 -10c-31,-7 -55,-18 -70,-33 -15,-15 -23,-35 -23,-61 0,-16 3,-30 9,-43 6,-13 15,-24 26,-33 11,-9 25,-16 40,-21 16,-5 33,-7 52,-7 21,0 40,3 59,9 18,6 34,15 49,26 4,3 6,6 7,10 1,4 1,7 0,11 -1,3 -3,6 -5,9 -2,2 -6,4 -9,4 -4,0 -8,-1 -13,-4 -13,-10 -27,-17 -41,-22 -14,-4 -30,-7 -47,-7 -18,0 -33,3 -46,8 -13,5 -23,13 -30,23 -7,10 -11,22 -11,35 0,16 5,29 15,38 10,9 26,16 48,20l52 11c34,7 58,18 74,32 16,14 24,33 24,58 0,15 -3,28 -9,40 -6,12 -15,23 -26,32 -11,9 -25,16 -41,20 -16,5 -34,7 -54,7zm290 0c-24,0 -45,-5 -63,-16 -18,-11 -31,-25 -41,-45 -9,-19 -14,-41 -14,-67 0,-19 3,-37 8,-52 5,-15 13,-28 23,-39 10,-11 23,-19 37,-25 14,-6 31,-8 49,-8 12,0 24,2 37,5 13,4 25,10 35,19 3,2 5,5 6,8 1,3 1,7 0,10 -1,3 -3,6 -5,8 -2,2 -5,3 -9,4 -3,0 -7,-1 -11,-3 -9,-7 -17,-11 -26,-14 -9,-3 -18,-4 -26,-4 -13,0 -24,2 -34,6 -10,4 -18,10 -24,18 -7,8 -12,17 -15,28 -3,11 -5,24 -5,39 0,29 7,52 20,69 14,17 33,25 58,25 8,0 17,-1 26,-4 9,-3 18,-7 27,-14 4,-3 7,-4 10,-3 3,0 6,2 8,4 2,2 4,5 5,8 1,3 1,7 0,10 -1,3 -3,6 -6,8 -11,9 -22,15 -35,19 -13,4 -25,6 -37,6zm148 -2c-7,0 -12,-2 -15,-6 -3,-4 -5,-9 -5,-16l0 -204c0,-7 2,-12 5,-16 3,-4 8,-5 15,-5 6,0 11,2 15,5 4,4 5,9 5,16l0 204c0,7 -2,12 -5,16 -3,4 -9,6 -15,6zm205 2c-26,0 -48,-5 -66,-15 -18,-10 -33,-24 -43,-43 -10,-19 -15,-41 -15,-67 0,-25 5,-47 15,-66 10,-19 24,-33 41,-44 17,-11 38,-16 61,-16 16,0 31,3 44,8 13,5 24,13 33,24 9,10 16,23 21,37 5,15 7,31 7,49 0,5 -1,9 -4,12 -3,2 -7,4 -13,4l-173 0 0 -26 164 0 -8 6c0,-18 -3,-33 -8,-46 -5,-12 -13,-22 -23,-29 -10,-7 -23,-10 -38,-10 -17,0 -31,4 -43,12 -12,8 -21,19 -27,32 -6,14 -9,30 -9,48l0 3c0,31 7,54 22,70 15,16 36,24 63,24 11,0 23,-1 34,-4 11,-3 22,-8 33,-15 5,-3 9,-4 13,-4 4,0 7,1 9,3 2,2 4,5 5,8 1,3 0,7 -1,10 -1,4 -4,7 -9,9 -11,8 -24,14 -39,18 -15,4 -30,6 -44,6zm176 -1c-7,0 -12,-2 -15,-5 -3,-4 -5,-9 -5,-15l0 -208c0,-7 2,-12 5,-15 3,-3 8,-5 14,-5 6,0 11,2 15,5 3,3 5,9 5,15l0 43 -5 -6c7,-19 18,-34 34,-44 16,-10 34,-15 55,-15 19,0 35,3 48,10 13,7 22,18 29,32 6,14 9,32 9,54l0 134c0,7 -2,12 -5,15 -3,4 -8,5 -15,5 -7,0 -12,-2 -15,-5 -3,-4 -5,-9 -5,-15l0 -131c0,-23 -4,-39 -13,-50 -9,-10 -23,-16 -42,-16 -22,0 -40,7 -53,21 -13,14 -20,32 -20,55l0 121c0,14 -7,21 -20,21zm366 1c-24,0 -45,-5 -63,-16 -18,-11 -31,-25 -41,-45 -9,-19 -14,-41 -14,-67 0,-19 3,-37 8,-52 5,-15 13,-28 23,-39 10,-11 23,-19 37,-25 14,-6 31,-8 49,-8 12,0 24,2 37,5 13,4 25,10 35,19 3,2 5,5 6,8 1,3 1,7 0,10 -1,3 -3,6 -5,8 -2,2 -5,3 -9,4 -3,0 -7,-1 -11,-3 -9,-7 -17,-11 -26,-14 -9,-3 -18,-4 -26,-4 -13,0 -24,2 -34,6 -10,4 -18,10 -24,18 -7,8 -12,17 -15,28 -3,11 -5,24 -5,39 0,29 7,52 20,69 14,17 33,25 58,25 8,0 17,-1 26,-4 9,-3 18,-7 27,-14 4,-3 7,-4 10,-3 3,0 6,2 8,4 2,2 4,5 5,8 1,3 1,7 0,10 -1,3 -3,6 -6,8 -11,9 -22,15 -35,19 -13,4 -25,6 -37,6zm545 -4c-7,0 -13,-2 -17,-6 -4,-4 -6,-9 -6,-17l0 -306c0,-7 2,-13 6,-17 4,-4 9,-6 17,-6l185 0c6,0 10,1 13,4 3,3 4,7 4,12 0,6 -1,10 -4,13 -3,3 -7,4 -13,4l-168 0 0 122 157 0c6,0 10,1 13,4 3,3 4,7 4,13 0,6 -1,10 -4,13 -3,3 -7,4 -13,4l-157 0 0 127 168 0c6,0 10,1 13,4 3,3 4,7 4,12 0,6 -1,10 -4,13 -3,3 -7,4 -13,4l-185 0zm264 3c-4,0 -8,-1 -11,-4 -3,-3 -5,-6 -5,-11 0,-4 2,-9 6,-14l87 -110 0 21 -82 -102c-4,-5 -6,-10 -6,-14 0,-4 2,-8 5,-10 3,-3 7,-4 11,-4 5,0 9,1 13,3 3,2 7,5 10,9l71 90 -14 0 72 -90c3,-4 6,-7 9,-9 3,-2 7,-3 12,-3 5,0 9,1 12,4 3,3 5,6 5,11 0,4 -2,9 -6,15l-81 101 0 -18 87 108c4,5 6,10 6,14 0,4 -2,8 -5,11 -3,3 -7,4 -12,4 -5,0 -9,-1 -12,-3 -3,-2 -7,-5 -10,-9l-77 -97 14 0 -77 97c-3,4 -6,6 -10,8 -3,2 -8,3 -13,3zm280 90c-7,0 -12,-2 -15,-5 -3,-3 -5,-9 -5,-15l0 -298c0,-7 2,-12 5,-15 3,-3 8,-5 14,-5 7,0 12,2 15,5 3,3 5,9 5,15l0 47 -5 -7c5,-19 16,-34 32,-45 16,-11 35,-17 57,-17 22,0 40,5 57,15 16,10 29,25 37,43 9,19 13,41 13,67 0,26 -4,48 -13,67 -9,19 -21,33 -37,44 -16,10 -35,15 -57,15 -22,0 -41,-6 -56,-17 -16,-11 -26,-26 -32,-45l6 0 0 130c0,7 -2,12 -5,15 -4,3 -9,5 -15,5zm94 -121c15,0 28,-4 40,-11 11,-7 20,-18 26,-32 6,-14 9,-31 9,-50 0,-30 -7,-53 -20,-69 -13,-16 -32,-24 -55,-24 -15,0 -28,4 -39,11 -11,7 -20,18 -26,31 -6,14 -9,31 -9,51 0,30 7,53 20,69 14,16 32,24 54,24zm250 32c-24,0 -42,-7 -55,-22 -13,-15 -19,-36 -19,-63l0 -254c0,-7 2,-12 5,-15 3,-3 8,-5 15,-5 6,0 11,2 15,5 4,3 5,9 5,15l0 251c0,18 4,31 11,40 7,9 18,13 32,13 3,0 6,0 8,-1 2,0 5,-1 7,-1 4,0 6,1 8,2 1,2 2,6 2,12 0,6 -1,10 -4,13 -3,3 -7,5 -13,6 -3,0 -5,1 -8,1 -3,0 -6,1 -8,1zm172 0c-24,0 -44,-5 -61,-15 -17,-10 -31,-25 -40,-44 -9,-19 -14,-41 -14,-67 0,-19 3,-37 8,-52 5,-15 13,-29 23,-40 10,-11 23,-19 37,-25 14,-6 30,-9 48,-9 24,0 44,5 61,15 17,10 31,25 40,44 9,19 14,41 14,67 0,19 -3,37 -8,52 -5,15 -13,28 -23,40 -10,11 -22,20 -37,25 -14,6 -30,9 -48,9zm0 -32c15,0 28,-4 39,-11 11,-7 20,-18 26,-32 6,-14 9,-31 9,-50 0,-30 -7,-53 -20,-69 -13,-16 -32,-24 -55,-24 -15,0 -28,4 -40,11 -11,7 -20,18 -26,31 -6,14 -9,31 -9,51 0,30 7,53 20,69 14,16 32,24 54,24zm197 31c-7,0 -12,-2 -15,-5 -3,-4 -5,-9 -5,-15l0 -208c0,-7 2,-12 5,-15 3,-3 8,-5 14,-5 6,0 11,2 15,5 3,3 5,9 5,15l0 40 -5 0c5,-20 15,-35 30,-45 15,-11 33,-16 55,-17 5,0 9,1 12,3 3,2 5,7 5,13 0,6 -1,10 -4,13 -3,3 -8,5 -14,6l-8 1c-23,2 -40,9 -52,22 -12,12 -18,29 -18,51l0 121c0,7 -2,12 -5,15 -3,4 -9,5 -15,5zm264 1c-26,0 -48,-5 -66,-15 -18,-10 -33,-24 -43,-43 -10,-19 -15,-41 -15,-67 0,-25 5,-47 15,-66 10,-19 24,-33 41,-44 17,-11 38,-16 61,-16 16,0 31,3 44,8 13,5 24,13 33,24 9,10 16,23 21,37 5,15 7,31 7,49 0,5 -1,9 -4,12 -3,2 -7,4 -13,4l-173 0 0 -26 164 0 -8 6c0,-18 -3,-33 -8,-46 -5,-12 -13,-22 -23,-29 -10,-7 -23,-10 -38,-10 -17,0 -31,4 -43,12 -12,8 -21,19 -27,32 -6,14 -9,30 -9,48l0 3c0,31 7,54 22,70 15,16 36,24 63,24 11,0 22,-1 34,-4 11,-3 22,-8 33,-15 5,-3 9,-4 13,-4 4,0 7,1 9,3 2,2 4,5 5,8 1,3 0,7 -1,10 -1,4 -4,7 -9,9 -11,8 -24,14 -39,18 -15,4 -30,6 -44,6z"/>
  <path class="fil1" d="M3110 2811c-8,0 -15,-2 -19,-7 -5,-4 -7,-11 -7,-18 0,-8 2,-14 7,-18 5,-4 11,-6 19,-6 9,0 15,2 20,6 4,4 7,10 7,18 0,8 -2,14 -7,18 -4,4 -11,7 -20,7z"/>
 </g>
</svg>
